<?xml version="1.0" encoding="UTF-8"?>
<svg xmlns="http://www.w3.org/2000/svg" xmlns:xlink="http://www.w3.org/1999/xlink" id="Layer_1" viewBox="0 0 59.22 53.84">
  <defs>
    <style>.cls-1{fill:url(#linear-gradient);}.cls-1,.cls-2,.cls-3,.cls-4,.cls-5,.cls-6{stroke-width:0px;}.cls-2{fill:url(#radial-gradient);}.cls-3{fill:url(#radial-gradient-2);}.cls-4{fill:url(#radial-gradient-3);}.cls-5{fill:url(#linear-gradient-2);}.cls-6{fill:url(#linear-gradient-3);}</style>
    <radialGradient id="radial-gradient" cx="-56.84" cy="54.99" fx="-56.84" fy="54.99" r="1.35" gradientTransform="translate(117.79 -1305.53) rotate(-129.3) scale(17.3 -16.27)" gradientUnits="userSpaceOnUse">
      <stop offset=".1" stop-color="#00aeff"></stop>
      <stop offset=".77" stop-color="#2253ce"></stop>
      <stop offset="1" stop-color="#0736c4"></stop>
    </radialGradient>
    <radialGradient id="radial-gradient-2" cx="-51.76" cy="60.41" fx="-51.76" fy="60.41" r="1.35" gradientTransform="translate(-213.13 1268.59) rotate(51.84) scale(15.99 -15.51)" gradientUnits="userSpaceOnUse">
      <stop offset="0" stop-color="#ffb657"></stop>
      <stop offset=".63" stop-color="#ff5f3d"></stop>
      <stop offset=".92" stop-color="#c02b3c"></stop>
    </radialGradient>
    <linearGradient id="linear-gradient" x1="17.52" y1="51.42" x2="20.6" y2="15.79" gradientTransform="translate(0 55.84) scale(1 -1)" gradientUnits="userSpaceOnUse">
      <stop offset=".16" stop-color="#0d91e1"></stop>
      <stop offset=".49" stop-color="#52b471"></stop>
      <stop offset=".65" stop-color="#98bd42"></stop>
      <stop offset=".94" stop-color="#ffc800"></stop>
    </linearGradient>
    <linearGradient id="linear-gradient-2" x1="17.83" y1="55.88" x2="19.51" y2="17.01" gradientTransform="translate(0 55.84) scale(1 -1)" gradientUnits="userSpaceOnUse">
      <stop offset="0" stop-color="#3dcbff"></stop>
      <stop offset=".25" stop-color="#0588f7" stop-opacity="0"></stop>
    </linearGradient>
    <radialGradient id="radial-gradient-3" cx="-54.84" cy="59.28" fx="-54.84" fy="59.28" r="1.35" gradientTransform="translate(-3215.28 1098.55) rotate(109.27) scale(38.39 -45.99)" gradientUnits="userSpaceOnUse">
      <stop offset=".07" stop-color="#8c48ff"></stop>
      <stop offset=".5" stop-color="#f2598a"></stop>
      <stop offset=".9" stop-color="#ffb152"></stop>
    </radialGradient>
    <linearGradient id="linear-gradient-3" x1="40.77" y1="43.29" x2="40.75" y2="32.7" gradientTransform="translate(0 55.84) scale(1 -1)" gradientUnits="userSpaceOnUse">
      <stop offset=".06" stop-color="#f8adfa"></stop>
      <stop offset=".71" stop-color="#a86edd" stop-opacity="0"></stop>
    </linearGradient>
  </defs>
  <path class="cls-2" d="m43.26,4.48c-.78-2.65-3.21-4.48-5.98-4.48h-1.82c-3.01,0-5.59,2.15-6.13,5.11l-3.12,16.98.77-2.65c.78-2.66,3.21-4.48,5.98-4.48h10.57l4.43,1.73,4.27-1.73h-1.25c-2.77,0-5.2-1.82-5.98-4.48l-1.76-6Z"></path>
  <path class="cls-3" d="m16.6,49.34c.77,2.67,3.21,4.5,5.99,4.5h3.86c3.38,0,6.14-2.69,6.23-6.07l.42-16.37-.88,3.01c-.78,2.66-3.21,4.48-5.98,4.48h-10.66l-3.8-2.06-4.11,2.06h1.23c2.78,0,5.22,1.84,5.99,4.5l1.72,5.95Z"></path>
  <path class="cls-1" d="m37.01,0H15.43C9.26,0,5.56,8.15,3.09,16.3.17,25.96-3.66,38.88,7.41,38.88h9.32c2.79,0,5.23-1.84,6-4.52,1.62-5.67,4.46-15.56,6.69-23.09,1.13-3.83,2.08-7.11,3.53-9.16.81-1.15,2.17-2.11,4.07-2.11Z"></path>
  <path class="cls-5" d="m37.01,0H15.43C9.26,0,5.56,8.15,3.09,16.3.17,25.96-3.66,38.88,7.41,38.88h9.32c2.79,0,5.23-1.84,6-4.52,1.62-5.67,4.46-15.56,6.69-23.09,1.13-3.83,2.08-7.11,3.53-9.16.81-1.15,2.17-2.11,4.07-2.11Z"></path>
  <path class="cls-4" d="m22.21,53.84h21.59c6.17,0,9.87-8.15,12.34-16.31,2.92-9.66,6.75-22.58-4.32-22.58h-9.32c-2.79,0-5.23,1.84-6,4.52-1.62,5.67-4.46,15.56-6.69,23.1-1.13,3.83-2.08,7.11-3.53,9.16-.81,1.15-2.17,2.11-4.07,2.11Z"></path>
  <path class="cls-6" d="m22.21,53.84h21.59c6.17,0,9.87-8.15,12.34-16.31,2.92-9.66,6.75-22.58-4.32-22.58h-9.32c-2.79,0-5.23,1.84-6,4.52-1.62,5.67-4.46,15.56-6.69,23.1-1.13,3.83-2.08,7.11-3.53,9.16-.81,1.15-2.17,2.11-4.07,2.11Z"></path>
</svg>
